<?xml version="1.0" encoding="UTF-8" standalone="no"?>
<svg
   version="1.1"
   x="0px"
   y="0px"
   viewBox="0 0 100 125"
   enable-background="new 0 0 100 100"
   xml:space="preserve"
   id="svg10"
   sodipodi:docname="sea.svg"
   inkscape:version="1.2.2 (732a01da63, 2022-12-09)"
   xmlns:inkscape="http://www.inkscape.org/namespaces/inkscape"
   xmlns:sodipodi="http://sodipodi.sourceforge.net/DTD/sodipodi-0.dtd"
   xmlns="http://www.w3.org/2000/svg"
   xmlns:svg="http://www.w3.org/2000/svg"><defs
     id="defs14" /><sodipodi:namedview
     id="namedview12"
     pagecolor="#ffffff"
     bordercolor="#000000"
     borderopacity="0.25"
     inkscape:showpageshadow="2"
     inkscape:pageopacity="0.0"
     inkscape:pagecheckerboard="0"
     inkscape:deskcolor="#d1d1d1"
     showgrid="false"
     inkscape:zoom="6.432"
     inkscape:cx="53.560323"
     inkscape:cy="57.447139"
     inkscape:window-width="1920"
     inkscape:window-height="991"
     inkscape:window-x="-9"
     inkscape:window-y="-9"
     inkscape:window-maximized="1"
     inkscape:current-layer="svg10" /><g
     id="g4"><path
       d="M5.139,69.672c-0.32,0-0.581-0.148-0.715-0.406c-0.259-0.498-0.069-1.308,1.678-3.8c2.213-3.158,4.027-6.826,5.782-10.374   c3.599-7.275,6.998-14.147,13.013-14.147c0.421,0,0.855,0.034,1.292,0.102c6.755,1.047,11.626,1.203,13.928,1.203   c0.349,0,0.623-0.004,0.817-0.009c0.448-1.469,0.162-2.906,0.049-3.363l-5.033-3.998l2.412,0.623   c2.056,0.531,3.27,0.655,4.246,0.755c0.893,0.091,1.599,0.164,2.541,0.492c1.727,0.603,3.55,2.565,4.088,3.177   c5.271,0.188,7.221-2.078,9.087-4.265c0.383-0.449,0.779-0.914,1.192-1.337c1.169-1.202,4.458-3.996,9.737-3.996   c2.504,0,5.127,0.64,7.795,1.903c1.436,0.679,3.021,1.411,4.642,2.159c11.069,5.108,14.245,6.788,13.962,8.074   c-0.166,0.761-1.254,0.761-1.717,0.761l-0.197-0.002c-2.162-0.049-5.133-0.588-8.279-1.158c-3.904-0.708-7.941-1.439-11.27-1.439   c-1.576,0-2.87,0.173-3.848,0.515c-4.572,1.597-8.108,4.225-10.949,6.337c-0.568,0.422-1.112,0.826-1.635,1.201   c-2.881,2.065-2.941,3.579-1.668,6.804c1.266,3.206,4.697,6.662,4.73,6.697l0.352,0.351L60.844,62.9   c-2.656,3.024-9.98,4.014-10.29,4.055l-0.551,0.072l-0.045-0.554c-0.673-8.168-3.535-10.739-3.564-10.764   c-3.488-3.313-7.874-4.005-10.943-4.005c-5.777,0-11.216,2.343-13.604,4.657C20.137,58.021,7.53,69.672,5.139,69.672z    M5.139,68.614v0.528V68.614L5.139,68.614z M24.897,42.002c-5.358,0-8.466,6.283-12.064,13.56   c-1.772,3.582-3.604,7.287-5.864,10.512c-0.962,1.373-1.341,2.09-1.488,2.453c2.27-0.917,11.418-8.839,15.63-12.923   c2.54-2.463,8.281-4.956,14.34-4.956c4.677,0,8.706,1.479,11.651,4.277c0.105,0.088,3.061,2.673,3.859,10.897   c1.639-0.271,6.535-1.229,8.749-3.273c-0.951-1.011-3.496-3.873-4.604-6.68c-1.373-3.48-1.42-5.573,2.035-8.052   c0.52-0.372,1.058-0.772,1.62-1.191c2.899-2.154,6.507-4.836,11.231-6.486c1.105-0.386,2.479-0.573,4.197-0.573   c3.423,0,7.691,0.773,11.459,1.456c3.104,0.563,6.035,1.095,8.113,1.142l0.174,0.002c0.234,0,0.402-0.013,0.521-0.028   c-1.236-1.263-8.381-4.56-13.211-6.789c-1.623-0.749-3.212-1.482-4.649-2.163c-2.525-1.195-4.995-1.801-7.343-1.801   c-4.877,0-7.903,2.571-8.979,3.676c-0.389,0.399-0.757,0.83-1.146,1.287c-1.958,2.294-4.188,4.908-10.169,4.625l-0.232-0.011   l-0.149-0.179c-0.02-0.023-2.045-2.431-3.779-3.035c-0.825-0.288-1.444-0.351-2.3-0.438c-0.591-0.061-1.266-0.129-2.15-0.286   l1.554,1.234l0.048,0.155c0.029,0.094,0.706,2.317-0.143,4.535l-0.124,0.323l-0.346,0.016c0,0-0.422,0.02-1.223,0.02   c-2.333,0-7.265-0.158-14.09-1.216C25.644,42.032,25.264,42.002,24.897,42.002z"
       id="path2" /></g><text
     xml:space="preserve"
     style="white-space:pre;inline-size:52.9028;fill:#000000"
     x="26.741295"
     y="72.605721"
     id="text111"
     transform="matrix(0.54413548,0,0,0.54413548,29.028839,37.648637)"><tspan
       x="26.741295"
       y="72.605721"
       id="tspan280">Seagull</tspan></text><text
     xml:space="preserve"
     style="font-size:5.42775px;fill:#000000;stroke-width:0.452312"
     x="74.359749"
     y="72.927727"
     id="text273"><tspan
       sodipodi:role="line"
       id="tspan271"
       x="74.359749"
       y="72.927727"
       style="stroke-width:0.452312">®</tspan></text></svg>
